<svg version="1.1" id="Layer_1" xmlns="http://www.w3.org/2000/svg" xmlns:xlink="http://www.w3.org/1999/xlink" x="0px" y="0px"
	 width="100%" viewBox="0 0 496 496" enable-background="new 0 0 496 496" xml:space="preserve">
<path fill="#000000" opacity="1.000000" stroke="none" 
	d="
M150.914978,244.769257 
	C144.333344,214.204224 147.335434,183.634613 146.895782,153.230576 
	C146.731476,141.868164 154.543320,134.783035 165.999695,134.664459 
	C173.483536,134.587006 181.093414,133.840729 187.502182,139.840805 
	C190.780396,133.224045 194.315353,127.528564 201.453613,126.466446 
	C209.459091,125.275307 217.546799,123.301140 225.670792,125.764580 
	C228.030365,126.480072 229.426941,125.912750 230.368744,123.616646 
	C233.359222,116.325844 239.182556,113.073418 246.737259,112.471672 
	C254.575607,111.847336 262.866821,108.703125 269.901611,114.311996 
	C274.256531,117.784210 277.175323,117.504150 281.881042,114.735405 
	C291.659149,108.982231 310.238525,111.067421 316.657074,117.668091 
	C319.397797,120.486557 321.064392,123.654510 321.445892,127.766640 
	C323.243164,147.137711 325.337494,166.481064 327.206482,185.845825 
	C327.437073,188.235016 328.536072,189.832565 330.133514,191.386978 
	C336.227478,197.316650 341.967163,203.559021 347.161133,210.313736 
	C350.137787,214.184891 351.822235,218.282379 351.301880,223.245560 
	C349.703308,238.492737 347.520569,253.601242 342.346680,268.148193 
	C331.001678,300.045959 308.052795,318.860718 275.857208,327.167938 
	C262.277832,330.671753 248.484787,332.597229 234.374161,332.414764 
	C202.743347,332.005707 180.442780,316.851196 165.727844,289.551514 
	C158.233002,275.646820 154.126617,260.569489 150.914978,244.769257 
M288.627808,249.295639 
	C285.244995,260.396484 277.567078,266.874512 266.252777,267.828552 
	C253.646774,268.891479 245.262131,261.965088 240.062515,251.017654 
	C237.783005,251.337769 236.637482,252.919296 235.116608,253.855087 
	C230.149017,256.911621 224.813889,258.614960 218.965912,257.791199 
	C204.054718,255.690796 196.697021,247.697052 195.664139,232.600555 
	C195.522507,230.530304 195.530060,228.497772 193.065445,227.785248 
	C190.464264,227.033234 190.120209,229.369156 189.195724,230.786407 
	C183.778381,239.091278 174.208527,242.770676 164.373077,240.414398 
	C162.899185,240.061295 161.330246,238.707184 159.473129,240.414368 
	C162.542572,258.280029 167.633865,275.554565 177.351883,291.204834 
	C188.247314,308.751251 203.677246,319.568237 224.308136,322.630554 
	C239.227524,324.845093 253.890640,322.796570 268.368103,319.572815 
	C298.886414,312.777191 321.913513,296.525787 333.586670,266.451416 
	C339.002228,252.498993 340.844055,237.810410 342.561157,223.099182 
	C342.688843,222.005386 342.510559,220.673157 341.974976,219.737808 
	C338.670044,213.965881 334.123657,209.277237 328.673950,204.330856 
	C328.673950,205.902435 328.626617,206.542496 328.681335,207.173721 
	C329.155060,212.639984 329.828522,218.095627 330.101166,223.571426 
	C331.073761,243.107513 311.688507,255.813797 293.402954,247.744217 
	C291.811035,247.041672 289.539124,244.273117 288.627808,249.295639 
M273.413330,155.985992 
	C272.501617,147.059647 271.711395,138.118607 270.633911,129.212311 
	C269.956177,123.610199 265.116180,119.472275 259.591431,119.692551 
	C255.611557,119.851242 251.622543,120.324738 247.688293,120.967903 
	C240.158539,122.198845 236.828644,126.259537 237.403976,133.645203 
	C237.984238,141.094498 238.902435,148.516846 239.611649,155.956818 
	C241.537170,176.156662 243.407654,196.361786 245.346359,216.560364 
	C246.266968,226.151825 246.871307,235.800934 248.396484,245.299072 
	C249.782150,253.928329 257.924835,259.540833 266.230652,258.620941 
	C274.860046,257.665253 280.922119,250.936905 280.983063,241.915649 
	C281.010010,237.928558 280.631989,233.929199 280.270447,229.950607 
	C278.057404,205.596954 275.796356,181.247635 273.413330,155.985992 
M319.846252,202.601273 
	C319.140961,195.142075 318.439911,187.682495 317.729492,180.223770 
	C316.104187,163.159836 314.587952,146.084259 312.781158,129.039520 
	C312.195374,123.513359 308.545197,120.544708 303.032501,120.192429 
	C298.851135,119.925224 294.737488,120.636063 290.601715,121.115738 
	C282.395508,122.067505 278.856171,126.907860 279.794830,135.219925 
	C281.156830,147.280991 282.156860,159.383072 283.297119,171.468979 
	C284.999939,189.516998 286.525024,207.583908 288.457977,225.607147 
	C289.382385,234.226669 295.597748,240.191483 303.226898,240.790085 
	C314.018250,241.636795 322.089111,234.227264 321.688416,223.399933 
	C321.442596,216.756790 320.528198,210.138397 319.846252,202.601273 
M229.719711,148.435745 
	C229.618271,145.616806 229.746719,142.785233 228.698959,140.063889 
	C227.025360,135.717072 222.647934,132.430099 218.425308,132.702911 
	C214.779022,132.938492 211.131454,133.302170 207.514969,133.821548 
	C199.413345,134.985016 195.957291,138.752762 196.305252,146.831894 
	C196.633255,154.447754 197.575043,162.037781 198.269379,169.637115 
	C200.293793,191.792908 202.294327,213.950974 204.388657,236.100159 
	C204.839813,240.871567 207.364868,244.530548 211.462982,246.984818 
	C217.577530,250.646667 223.792236,250.804977 229.816147,246.853928 
	C236.593582,242.408630 238.259644,235.888077 237.435760,228.146744 
	C235.994461,214.603912 234.928391,201.021576 233.629547,187.463043 
	C232.411469,174.747910 231.095581,162.042145 229.719711,148.435745 
M156.542313,148.547256 
	C156.384140,150.366150 156.045807,152.189972 156.095245,154.003204 
	C156.685059,175.634689 154.864578,197.270279 156.288513,218.904648 
	C156.694565,225.073959 159.273544,229.383774 164.495941,231.271652 
	C170.393616,233.403641 176.542450,231.741974 180.393799,227.249023 
	C182.838242,224.397339 182.878448,222.391434 179.653687,219.919662 
	C172.522705,214.453766 168.172287,207.081558 166.291611,198.282257 
	C163.593445,185.658203 167.278946,174.182556 176.934311,170.242371 
	C183.256134,167.662552 184.760986,164.174210 183.975571,158.250259 
	C183.671585,155.957443 183.958862,153.590897 183.896973,151.260056 
	C183.826965,148.623062 182.756592,146.423920 180.729446,144.722992 
	C175.040878,139.949890 161.196976,141.742844 156.542313,148.547256 
M195.524780,193.937958 
	C194.898178,189.002045 194.164932,184.076370 193.690414,179.125870 
	C193.456635,176.687012 192.430405,175.212158 189.995621,175.487869 
	C181.737869,176.422943 174.887665,179.042465 174.311615,189.432083 
	C174.132477,192.662811 174.780090,195.746857 175.546448,198.782730 
	C178.061737,208.746872 188.697128,218.279602 197.687714,218.559647 
	C197.947876,210.559921 195.706238,202.779465 195.524780,193.937958 
z"/>
<path fill="#000000" opacity="1.000000" stroke="none" 
	d="
M117.546585,360.591370 
	C117.601059,357.292786 117.404762,354.437683 117.718391,351.639740 
	C117.994362,349.177765 116.021378,345.431396 120.419159,344.814178 
	C124.200890,344.283478 127.841408,343.976410 129.598343,349.114563 
	C131.796997,355.544525 134.894028,361.670105 137.663193,367.900452 
	C138.444778,369.658966 139.436157,371.324280 140.953522,374.219513 
	C144.430786,364.974396 147.499420,356.977966 150.443954,348.936066 
	C152.839294,342.394135 155.660263,341.186249 162.047424,343.998474 
	C163.939819,344.831665 164.288834,346.248779 164.287216,348.008026 
	C164.276169,359.996338 164.201553,371.985199 164.299683,383.972656 
	C164.334427,388.218903 161.643509,388.183899 158.634506,388.291718 
	C155.455200,388.405640 153.485077,387.592926 153.646698,383.904968 
	C153.820999,379.927979 153.653580,375.949127 152.508560,371.467651 
	C150.798126,375.945312 149.161484,379.917297 147.772247,383.974030 
	C146.810410,386.782715 145.467178,388.504547 142.110764,388.388245 
	C138.831970,388.274536 135.974472,388.406525 134.482956,384.481445 
	C132.687851,379.757355 130.275238,375.267944 127.722031,369.803955 
	C127.722031,375.161377 127.525467,379.433960 127.793739,383.677124 
	C127.961990,386.338257 128.045746,388.687775 124.575256,388.222107 
	C121.653496,387.830078 116.792557,390.579498 116.731567,384.495636 
	C116.653214,376.679993 116.404625,368.842133 117.546585,360.591370 
z"/>
<path fill="#000000" opacity="1.000000" stroke="none" 
	d="
M282.629791,380.798920 
	C282.623657,378.355377 282.642578,376.358459 282.600739,374.362823 
	C282.570343,372.912933 282.095703,371.676819 280.433258,371.511658 
	C278.685455,371.337982 277.627258,372.202454 277.211517,373.929535 
	C276.426239,377.191803 276.097015,380.512787 276.343536,383.836121 
	C276.684052,388.426758 273.768036,388.427551 270.547638,388.333313 
	C267.511719,388.244476 264.516541,388.694336 264.592010,383.954559 
	C264.785400,371.812103 264.717285,359.664246 264.627258,347.519470 
	C264.605591,344.598724 265.477539,342.949371 268.614960,343.534515 
	C271.305206,344.036285 275.525055,342.050201 275.347900,347.537201 
	C275.245941,350.694641 275.442566,353.861877 275.334076,357.018860 
	C275.234375,359.919647 276.730804,360.713684 279.330933,360.774536 
	C282.124054,360.839874 282.691589,359.312927 282.660248,356.996033 
	C282.626495,354.501587 282.667755,352.003906 282.755524,349.510468 
	C282.943878,344.158783 286.290314,342.053680 291.361511,343.907990 
	C293.220123,344.587585 293.308044,345.995850 293.310791,347.497253 
	C293.333344,359.808899 293.291534,372.120850 293.354095,384.432251 
	C293.368317,387.231262 292.077179,388.369873 289.425110,388.263947 
	C287.311829,388.179565 285.124878,388.781952 283.060516,387.649536 
	C282.159424,385.545288 282.815460,383.362671 282.629791,380.798920 
z"/>
<path fill="#000000" opacity="1.000000" stroke="none" 
	d="
M361.660248,345.600677 
	C372.040527,343.013794 377.706818,344.995911 382.530273,352.706146 
	C385.633636,357.666901 385.092804,361.912903 380.498779,366.214447 
	C386.548340,371.287354 383.792358,378.251465 384.296082,384.609375 
	C384.559998,387.940521 382.411865,388.391083 379.792267,388.307098 
	C377.174866,388.223236 374.155029,388.891388 373.866882,384.865234 
	C373.677124,382.213867 373.681091,379.541138 373.347473,376.909760 
	C373.028625,374.394989 371.508514,373.129608 368.831482,373.424622 
	C366.161926,373.718750 366.386658,375.678802 366.357391,377.510773 
	C366.333496,379.008240 366.353821,380.506348 366.345947,382.004120 
	C366.312408,388.406067 365.768646,388.808472 359.543274,388.332733 
	C356.871399,388.128601 355.632324,387.115234 355.642975,384.381012 
	C355.687164,373.064606 355.740662,361.746857 355.608643,350.431732 
	C355.560181,346.278015 358.523895,346.242462 361.660248,345.600677 
M372.577332,362.090881 
	C374.007721,359.941772 374.333710,357.592865 372.408630,355.787109 
	C371.142212,354.599213 368.736572,353.578003 367.396210,355.012299 
	C365.297913,357.257690 366.331177,360.219025 366.801605,362.847900 
	C368.775452,363.564087 370.316589,362.581299 372.577332,362.090881 
z"/>
<path fill="#000000" opacity="1.000000" stroke="none" 
	d="
M205.101639,388.342224 
	C200.562454,388.906128 199.510162,386.904602 199.587891,383.153412 
	C199.777206,374.018280 199.648514,364.876587 199.650223,355.737518 
	C199.651642,348.223877 203.045074,344.555145 210.723724,343.760101 
	C220.788803,342.717926 226.572647,347.064484 227.574432,357.096069 
	C228.166199,363.021637 228.211182,369.049469 227.921143,375.003021 
	C227.582855,381.947418 220.347961,388.367462 213.565430,388.355133 
	C210.906799,388.350281 208.248154,388.347443 205.101639,388.342224 
M217.902740,376.737488 
	C217.813934,370.457550 217.729050,364.177551 217.634476,357.897705 
	C217.592392,355.103821 216.135391,353.601013 213.373154,353.459595 
	C209.997070,353.286835 210.362762,355.779999 210.353287,357.908997 
	C210.328278,363.530548 210.353516,369.152344 210.345749,374.774017 
	C210.343170,376.648438 210.344177,378.470673 212.691833,379.091003 
	C214.712723,379.625000 216.646973,380.040741 217.902740,376.737488 
z"/>
<path fill="#000000" opacity="1.000000" stroke="none" 
	d="
M167.736542,374.649719 
	C167.704132,366.370056 167.655350,358.552551 167.658218,350.735077 
	C167.660400,344.785889 168.550339,343.991302 175.122437,344.004883 
	C180.133224,344.015259 178.171066,347.909882 178.257370,350.233246 
	C178.497986,356.710663 178.559891,363.216339 178.222031,369.686310 
	C177.982010,374.282806 180.195526,376.329071 184.033676,377.399048 
	C186.341537,376.120544 185.597519,374.078094 185.615692,372.383240 
	C185.701294,364.400208 185.808578,356.412659 185.622620,348.433380 
	C185.525681,344.273254 187.967865,343.895325 191.070999,343.904846 
	C193.936981,343.913666 196.377747,344.123016 196.348694,348.054321 
	C196.251709,361.176147 196.311935,374.299164 196.311935,387.137207 
	C194.859604,388.750854 193.272446,388.207245 191.836334,388.367737 
	C187.405624,388.862854 183.126968,387.085205 178.538483,387.978027 
	C175.273773,388.613251 168.261826,379.574890 167.736542,374.649719 
z"/>
<path fill="#000000" opacity="1.000000" stroke="none" 
	d="
M253.748260,348.502930 
	C256.336639,361.741119 258.793976,374.573639 261.211975,387.200928 
	C258.673676,388.835663 256.448883,388.146484 254.336639,388.339752 
	C251.215027,388.625336 249.683670,387.265686 249.591705,384.094849 
	C249.541290,382.356445 248.490082,381.386993 246.683258,381.332886 
	C245.095490,381.285370 243.856979,381.597931 242.996323,383.233978 
	C239.953796,389.017456 238.816269,389.384949 230.840393,387.558685 
	C230.101807,382.413086 232.006836,377.491180 232.699005,372.467133 
	C233.808899,364.411102 235.389420,356.420624 236.556763,348.371338 
	C236.952652,345.641541 238.235428,344.674042 240.822037,344.660339 
	C243.480850,344.646179 246.183105,344.649841 248.785339,344.188629 
	C252.141418,343.593811 253.415390,345.053955 253.748260,348.502930 
M246.903198,370.007965 
	C246.377075,368.031586 247.198044,365.729187 245.218811,363.630402 
	C245.386658,367.454498 242.689011,371.070282 245.902451,374.531342 
	C247.845901,373.327362 247.203339,371.977478 246.903198,370.007965 
z"/>
<path fill="#000000" opacity="1.000000" stroke="none" 
	d="
M344.253510,372.063660 
	C340.454346,372.049316 340.182007,374.245087 340.395386,376.823456 
	C340.632507,379.688324 342.743408,379.650177 344.781433,379.646362 
	C348.639496,379.639160 352.895081,378.930603 352.305786,385.131683 
	C352.119720,387.089294 351.551483,388.308319 349.404205,388.306000 
	C343.910706,388.300049 338.417053,388.284149 332.923737,388.317230 
	C330.589203,388.331299 329.827087,387.150208 329.647339,384.930023 
	C328.746460,373.802063 328.642151,362.657562 328.618317,351.504211 
	C328.612915,348.973969 329.589874,347.708527 331.897888,346.650421 
	C336.983582,344.318878 342.291626,344.711304 347.600159,344.680084 
	C349.673401,344.667877 351.281097,345.226746 351.213898,347.703674 
	C351.149170,350.088928 352.050293,353.001587 348.588196,353.846313 
	C346.993256,354.235474 345.292084,354.321869 343.640076,354.314423 
	C340.943787,354.302246 340.302734,355.765625 340.294525,358.141693 
	C340.285553,360.732239 341.445312,361.749207 343.940521,361.655731 
	C346.085815,361.575317 348.236481,361.639069 350.237030,361.639069 
	C353.227814,370.539185 352.592316,371.648376 344.253510,372.063660 
z"/>
<path fill="#000000" opacity="1.000000" stroke="none" 
	d="
M314.748627,346.410126 
	C317.295013,341.752167 320.756775,345.038055 323.651917,345.094788 
	C325.991333,345.140686 325.294342,347.964142 325.309448,349.651886 
	C325.374939,356.966003 325.126770,364.285950 325.318176,371.595276 
	C325.714508,386.727356 311.656586,392.780060 299.143188,387.390350 
	C297.498260,386.681885 296.901581,385.529785 296.853882,383.926605 
	C296.769836,381.102570 296.760986,378.276184 296.667633,375.452576 
	C296.585480,372.968597 297.733887,371.624268 300.218292,371.794037 
	C302.480743,371.948608 305.294312,370.543091 306.483002,374.110657 
	C307.076172,375.890900 306.539825,379.308563 309.835510,378.536987 
	C312.688324,377.869110 314.609314,375.510406 314.650726,372.300110 
	C314.723663,366.648712 314.655823,360.995544 314.658295,355.343140 
	C314.659515,352.517120 314.685883,349.691071 314.748627,346.410126 
z"/>
</svg>